<?xml version="1.0" encoding="UTF-8"?>
<svg width="232px" height="66px" viewBox="0 0 232 66" version="1.1" xmlns="http://www.w3.org/2000/svg" xmlns:xlink="http://www.w3.org/1999/xlink">
    <!-- Generator: Sketch 52.3 (67297) - http://www.bohemiancoding.com/sketch -->
    <title>CSforALL Logo</title>
    <desc>Created with Sketch.</desc>
    <g id="Symbols" stroke="none" stroke-width="1" fill="none" fill-rule="evenodd">
        <g id="Masthead" transform="translate(0.000000, -77.000000)">
            <g id="Header">
                <g id="CSforALL-Logo" transform="translate(0.000000, 77.000000)">
                    <path d="M34.2070438,15.2628884 C33.2646314,15.2628884 32.4920241,16.0478332 32.4920241,17.0052928 C32.4920241,17.9627527 33.2646314,18.7476971 34.2070438,18.7476971 C35.1494599,18.7476971 35.9220672,17.9627527 35.9220672,17.0052928 C35.9220672,16.0478332 35.1494599,15.2628884 34.2070438,15.2628884 Z M21.2170276,52 C15.4012361,52 10.0524087,49.8263082 6.16389332,45.8929603 C2.19047542,41.8647308 0,36.2234833 0,30.0043125 C0,23.7765141 2.19047542,18.1352677 6.16389332,14.1156625 C10.0524087,10.1736907 15.4012361,8 21.2170276,8 C25.691369,8 29.6562952,9.34561795 33.0099274,11.9937255 C33.1882242,12.1403639 33.4089687,12.2007431 33.6297131,12.1662406 C33.824986,12.1489934 34.0117709,12.1317388 34.2070438,12.1317388 C36.9663656,12.1317388 39.1907969,14.5210755 38.9870323,17.3762003 C38.8087355,19.7569112 36.9154226,21.6804546 34.5721219,21.8615958 C31.7703561,22.0772395 29.418571,19.8172907 29.418571,17.0052935 C29.418571,16.7723963 29.4355471,16.5308766 29.4695103,16.2979794 C29.5119871,15.9874544 29.3846078,15.6683014 29.1299038,15.4871579 C26.8120782,13.8655148 24.0442684,12.9770629 21.2170276,12.9770629 C16.8530601,12.9770629 12.8626661,14.6418339 9.96750613,17.6781025 C7.0044234,20.7747502 5.37430258,25.1566357 5.37430258,30.0043125 C5.37430258,34.800236 7.0044234,39.1648706 9.96750613,42.2873939 C12.8711578,45.3409138 16.8700399,47.0229353 21.2170276,47.0229353 C25.5640152,47.0229353 29.783649,44.8923725 32.2288284,41.4593223 L32.9250249,40.6312506 C33.4429282,40.174082 34.0966771,39.9153115 34.7674021,39.9153115 C35.3022815,39.9153115 35.8116968,40.0792003 36.2362059,40.3983545 C36.8050449,40.8210139 37.1616421,41.4679458 37.2295576,42.2183904 C37.2889923,42.770437 37.1786219,43.3311108 36.9239143,43.840032 L36.5673207,44.3920786 C32.4325894,49.507154 27.4063887,52 21.2170276,52 Z" id="path6" fill="#ED185B"></path>
                    <path d="M40.763187,54.878707 C39.820064,54.878707 39.0622075,55.6645741 39.0622075,56.6231604 C39.0622075,57.5817468 39.820064,58.3676176 40.763187,58.3676176 C41.6978806,58.3676176 42.4641665,57.5817468 42.4641665,56.6231604 C42.4641665,55.6645741 41.6978806,54.878707 40.763187,54.878707 Z M53.95,65 C49.5628142,65 45.5461435,63.808247 42.2957551,61.5369981 C42.1104994,61.4074586 41.8831399,61.3642788 41.6557805,61.4074586 C41.3610543,61.4679096 41.0663281,61.4938183 40.763187,61.4938183 C38.009614,61.4938183 35.8033933,59.101671 36.013912,56.2518168 C36.1907455,53.8683034 38.0685585,51.9424932 40.3926755,51.7697738 C43.1883486,51.5538784 45.5208842,53.8164861 45.5208842,56.6231604 C45.5208842,56.7008827 45.5208842,56.7786086 45.5208842,56.8563308 C45.504047,57.1585896 45.6471918,57.4435736 45.891392,57.6076555 C48.3755018,59.2139356 51.1206489,60.0257113 54.067889,60.0257113 C57.3688033,60.0257113 59.903439,59.2398443 61.5791555,57.6853777 C62.9180494,56.4418074 63.6590687,54.7059877 63.6590687,52.7888149 C63.6590687,47.7368003 58.7666453,46.3377819 53.1163546,44.722868 C49.9501701,43.8247289 46.6829373,42.8920512 44.1651496,41.1907739 C41.1842244,39.1958789 39.7358565,36.4410218 39.7358565,32.7880275 C39.7358565,29.3077522 41.1842244,26.3110888 43.9125271,24.134837 C46.4471592,22.1140323 49.9249107,21 53.7142219,21 C59.2887237,21 63.9958986,22.8739933 67.3136537,26.423356 C67.507328,26.6306173 67.7010059,26.8465158 67.8862617,27.0624134 L68.2736139,27.5114815 C69.2840964,28.7118742 69.2335741,30.4476935 68.1641471,31.3976443 C67.7346911,31.777625 67.1620795,31.9935227 66.5726308,31.9935227 C65.7558262,31.9935227 64.9642774,31.6135423 64.4000916,30.9485766 C64.3748359,30.9140305 64.3495657,30.8794892 64.3243027,30.8535817 L64.3243027,30.8449443 L64.2822206,30.8017637 L64.2653835,30.7758551 C61.7139142,27.6410169 58.0088033,25.9829206 53.5289915,25.9829206 C48.6365609,25.9829206 45.0830313,28.7636859 45.0830313,32.60667 C45.0830313,36.665551 49.3354837,37.8918501 54.7247297,39.4376793 C58.0593292,40.3962694 61.5118177,41.3893981 64.2401241,43.2720285 C67.4399902,45.4828226 68.9978177,48.5140299 68.9978177,52.5470034 C68.9978177,55.7854724 67.8189203,58.7648661 65.6884848,60.9324804 C63.0359601,63.6355239 59.0866525,65 53.9500253,65 L53.95,65 Z" id="path8" fill="#ED185B"></path>
                    <path d="M97.5839182,38.4250166 C97.5065585,39.2991961 96.7501804,39.9800456 95.8562727,39.9800456 C95.8047032,39.9800456 95.7617268,39.9800456 95.7101537,39.9716422 C95.24601,39.9380283 94.8248464,39.7278806 94.5326083,39.3748489 C94.2317735,39.0302206 94.0856545,38.5931291 94.1200341,38.139227 C94.1630142,37.6853285 94.3778925,37.2734546 94.7302968,36.9876649 C95.0483215,36.7186858 95.4351091,36.584198 95.8476796,36.584198 C95.8992491,36.584198 95.9508223,36.584198 95.9937987,36.584198 C96.4579423,36.6262261 96.8791059,36.836363 97.1799407,37.1809949 C97.4721788,37.5340266 97.6182978,37.9711182 97.5839182,38.4250166 Z M118.943069,24.6819039 C116.175404,21.6138694 112.350523,20 107.906789,20 C103.506032,20 99.7327236,21.6138694 96.9736555,24.6903096 C94.7646765,27.1447363 93.3722528,30.464938 93.0198485,34.0877403 C93.0026624,34.3062853 92.8909193,34.5080188 92.7190137,34.6509136 C92.7190137,34.6509136 92.7190137,34.6509136 92.7190137,34.6509136 C91.7305638,35.4746604 91.1203011,36.6178191 91.0171585,37.8870584 C90.7936834,40.4927863 92.7791799,42.7959141 95.4522989,43.014458 C95.5812245,43.0312649 95.7187504,43.0312649 95.8562727,43.0312649 C98.3574898,43.0312649 100.480509,41.1232006 100.686794,38.6771781 C100.832913,36.9624437 100.033558,35.3401655 98.6325343,34.3819312 C98.3660791,34.2054143 98.2199638,33.8944085 98.2715333,33.583402 C99.0622947,28.9435254 102.24253,24.5474104 107.906789,24.5474104 C110.880739,24.5474104 113.407739,25.7325964 115.20414,27.9684788 C116.880213,30.0530612 117.799903,32.894145 117.799903,35.9705834 C117.799903,39.0722415 116.880213,41.9301344 115.20414,44.0231253 C113.407739,46.2590074 110.880739,47.4441905 107.906789,47.4441905 C105.543102,47.4441905 103.428676,46.6624743 101.769797,45.1746874 C101.331436,44.7712205 100.74696,44.5274589 100.102318,44.5274589 C98.7528668,44.5274589 97.6526775,45.6033718 97.6526775,46.9314534 C97.6526775,47.654331 97.9707021,48.3015594 98.4864153,48.738651 C98.4950084,48.7470544 98.5036014,48.7554579 98.5121945,48.7554579 C98.5207876,48.7638613 98.5293806,48.7806683 98.5465668,48.7890717 C98.5465668,48.7890717 98.5465668,48.7890717 98.5465668,48.7890717 C101.09935,50.8904624 104.305372,52 107.906774,52 C112.350508,52 116.166792,50.3693183 118.94305,47.2760672 C121.556003,44.3677391 123,40.3498771 123,35.9705726 C123,31.5828625 121.556003,27.5818095 118.94305,24.681887 L118.943069,24.6819039 Z" id="path10" fill="#3061AC"></path>
                    <path d="M80.7019883,50.41579 C79.7642016,50.41579 78.9953864,51.1959243 78.9953864,52.1475179 C78.9953864,53.1076859 79.7642016,53.8792494 80.7019883,53.8792494 C81.6482251,53.8792494 82.4085938,53.1076859 82.4085938,52.1475179 C82.4085938,51.1959243 81.6482251,50.41579 80.7019883,50.41579 Z M80.651299,56.9997901 C78.2772606,56.965507 76.2580583,55.1480421 75.9623652,52.7647672 C75.751147,50.9987489 76.4777229,49.3098822 77.8210387,48.2811334 C78.0238068,48.1268192 78.1420819,47.886779 78.1420819,47.62959 L78.1420819,25.7172054 C78.1420819,25.5371738 77.9984567,25.3914344 77.8210387,25.3914344 L74.2642061,25.3914344 C74.2557597,25.3914344 74.2219668,25.3914344 74.2219668,25.3914344 C74.1881812,25.3914344 74.1543738,25.3914344 74.1374774,25.38286 C72.9377868,25.3228496 72,24.3198178 72,23.1024633 C72,21.8851087 72.9293367,20.8906499 74.1121345,20.8134946 C74.1543738,20.8049092 74.1881703,20.8049092 74.2219668,20.8049092 L77.8210387,20.8049092 C77.9984567,20.8049092 78.1420819,20.6591691 78.1420819,20.4791382 L78.1420819,19.0217417 C78.1420819,16.0040755 78.9446935,13.4750627 80.4654309,11.7176137 C82.0115112,9.94301881 84.225028,9 86.8778703,9 C88.6943045,9 90.6966031,9.27433168 92.9692629,11.2889693 C92.9861557,11.2975548 93.0030485,11.3146927 93.0199522,11.3318334 C93.1466809,11.4347094 93.2649596,11.554731 93.3747883,11.67475 C94.2449893,12.7035022 94.2027464,14.1951898 93.2734096,15.0096171 C92.8932235,15.3439606 92.3947586,15.5325645 91.8794009,15.5325645 C91.3640396,15.5325645 90.8486783,15.3525336 90.4178028,15.0267626 C90.3755599,14.9924722 90.333317,14.9581804 90.2910741,14.9238866 C89.3870802,14.0665953 88.3648113,13.6465239 87.173567,13.6465239 C84.453139,13.6465239 83.0760267,15.4554096 83.0760267,19.0217446 L83.0760267,20.4791412 C83.0760267,20.659172 83.2196519,20.8049121 83.3970735,20.8049121 L88.0775609,20.8049121 C88.1282502,20.8049121 88.1789432,20.8134976 88.2296325,20.8220536 C89.3786338,20.9420752 90.2488348,21.9193874 90.2488348,23.1024507 C90.2488348,24.2855134 89.3786338,25.2628263 88.2211861,25.3828471 C88.1704932,25.3828471 88.1198002,25.3914179 88.0775609,25.3914179 L87.9846287,25.3914179 C87.9761823,25.3914179 87.9677359,25.3914179 87.9592895,25.3914179 L83.3970844,25.3914179 C83.2196664,25.3914179 83.0760412,25.5371572 83.0760412,25.7171888 L83.0760412,47.4924063 C83.0760412,47.7581661 83.2027663,48.0153552 83.4224309,48.1696656 C84.6897109,49.0612492 85.4838725,50.5529369 85.4838725,52.1475032 C85.4838725,54.8393991 83.3041486,57.025495 80.6513099,56.9997754 L80.651299,56.9997901 Z" id="path12" fill="#3061AC"></path>
                    <path d="M130.946768,19.5972946 C129.97616,19.5972946 129.18203,18.814082 129.18203,17.8587377 C129.18203,16.9033904 129.97616,16.1201779 130.946768,16.1201779 C131.926198,16.1201779 132.720331,16.9033904 132.720331,17.8587377 C132.720331,18.814082 131.926198,19.5972946 130.946768,19.5972946 Z M143.344066,19.511229 C143.247003,19.511229 143.149944,19.511229 143.061706,19.5284381 C139.841057,19.6575398 136.479227,21.0948635 133.85859,23.3928589 C133.708587,23.5219598 133.470346,23.41868 133.470346,23.2207245 L133.470346,22.4891526 C133.470346,22.2223437 133.602702,21.9641419 133.823292,21.8178275 C135.111554,20.9141227 135.905687,19.4337658 135.905687,17.8587337 C135.905687,15.0615479 133.479168,12.8065849 130.576171,13.0131457 C128.096716,13.1938865 126.120205,15.1906466 126.0055,17.6263504 C125.926084,19.3046642 126.711392,20.8538738 128.061418,21.8092207 C128.282012,21.9641419 128.414368,22.2137369 128.414368,22.4805459 L128.414368,50.4179821 C128.414368,50.4524004 128.405547,50.4868371 128.405547,50.5126544 C128.405547,51.8811266 129.543801,53 130.937947,53 C132.340913,53 133.479172,51.8811266 133.479172,50.5126544 C133.479172,50.5040499 133.47035,50.4868408 133.47035,50.4782362 L133.47035,31.818853 C133.47035,31.3368765 133.558588,30.863506 133.752705,30.4245631 C134.802726,28.0060728 137.873372,24.658056 141.941099,24.658056 C142.311695,24.658056 142.602876,24.658056 142.87641,24.6838771 C143.026413,24.7096981 143.185241,24.7269117 143.344066,24.7269117 C144.817623,24.7269117 146,23.5563969 146,22.1190731 C146,20.6731422 144.817623,19.5112346 143.344066,19.5112346 L143.344066,19.511229 Z" id="path14" fill="#3061AC"></path>
                    <path d="M170.029259,36.6396255 L154.728947,36.6396255 C154.37252,36.6396255 154.137799,36.288587 154.2682,35.9717987 L161.944437,17.3153761 C162.10961,16.9129644 162.692064,16.9129644 162.857241,17.3153761 L170.490007,35.9717987 C170.620404,36.288587 170.376992,36.6396255 170.029259,36.6396255 Z M140.915206,62.890471 C139.950244,62.890471 139.159146,62.1113342 139.159146,61.1609617 C139.159146,60.2020258 139.950244,59.4314561 140.915206,59.4314561 C141.888859,59.4314561 142.671262,60.2020258 142.671262,61.1609617 C142.671262,62.1113342 141.888859,62.890471 140.915206,62.890471 Z M165.543487,10.1062388 L165.526104,10.0805484 C165.0045,8.81338393 163.770048,8 162.379107,8 C160.970784,8 159.736328,8.8219459 159.214728,10.097672 L159.197345,10.1233623 L140.219744,55.9895645 C140.115424,56.2292966 139.915479,56.4176592 139.663372,56.4775922 C137.472645,57.0426798 135.916535,59.020481 136.003469,61.3407608 C136.090403,63.7637836 138.029018,65.7758348 140.489241,65.9813242 C143.392823,66.2296161 145.835656,63.969273 145.835656,61.1609617 C145.835656,60.3989518 145.653093,59.6540651 145.314052,58.9862346 C145.20104,58.7636257 145.183654,58.5153301 145.270588,58.2841577 L151.964455,41.8880826 C152.042694,41.6997201 152.225253,41.579854 152.425202,41.579854 L172.33299,41.579854 C172.532935,41.579854 172.715498,41.6997201 172.785042,41.8795192 C173.45443,43.5062856 176.627508,51.2034484 176.627508,51.2034484 L176.749218,51.4603074 L176.757909,51.4603074 C177.192579,52.3935567 178.140152,53.0357006 179.252901,53.0357006 C180.765548,53.0357006 182,51.8199093 182,50.3301359 C182,49.9448474 181.91307,49.5852491 181.765283,49.2513339 L165.543479,10.1062388 L165.543487,10.1062388 Z" id="path16" fill="#30BBF8"></path>
                    <path d="M187.874962,6.56551094 C186.910307,6.56551094 186.126522,5.78655344 186.126522,4.83639521 C186.126522,3.88623698 186.910307,3.10727581 187.874962,3.10727581 C188.831005,3.10727581 189.614787,3.88623698 189.614787,4.83639521 C189.614787,5.78655344 188.831005,6.56551094 187.874962,6.56551094 Z M209.510839,57.0523272 C209.467752,57.0523272 209.424705,57.0523272 209.38164,57.0523272 L191.466587,57.0523272 C190.941193,57.0523272 190.527769,56.6414484 190.527769,56.1278462 L190.527769,9.32182817 C190.527769,9.06503 190.639739,8.82534896 190.846451,8.67126903 C192.026435,7.75535094 192.741309,6.35151368 192.741309,4.83639521 C192.741309,2.16567908 190.553605,0 187.874962,0 C185.187704,0 183,2.16567908 183,4.83639521 C183,6.33439434 183.706266,7.7382316 184.869025,8.64558928 C185.067122,8.79966921 185.187704,9.03935062 185.187704,9.29614842 L185.187704,60.6988825 C185.187704,61.4179204 185.773392,62 186.49688,62 L209.38164,62 C209.398862,62 209.416083,62 209.441934,61.9914422 C209.459156,62 209.485022,62 209.510839,62 C210.88031,62 212,60.8872025 212,59.5261655 C212,58.1565669 210.88031,57.0523272 209.510839,57.0523272 Z" id="path18" fill="#30BBF8"></path>
                    <path d="M227.184692,49.9083937 C226.231042,49.9083937 225.464717,49.1328357 225.464717,48.1868285 C225.464717,47.2322973 226.231042,46.4652634 227.184692,46.4652634 C228.129826,46.4652634 228.904664,47.2322973 228.904664,48.1868285 C228.904664,49.1328357 228.129826,49.9083937 227.184692,49.9083937 Z M227.184692,43.3630423 C225.626499,43.3630423 224.161963,44.1385966 223.2594,45.3914203 C223.106141,45.6044826 222.85921,45.7323222 222.595254,45.7323222 L203.207233,45.7323222 C202.696351,45.7323222 202.279128,45.3147143 202.279128,44.8033596 L202.279128,9.14483501 C202.279128,9.14483501 202.287641,9.12779412 202.287641,9.11074591 C202.287641,9.09370502 202.279128,9.07665682 202.279128,9.05108853 L202.279128,8.68461503 C202.279128,8.6675778 202.279128,8.65904272 202.279128,8.64200293 C202.279128,7.18463813 201.104097,6 199.639564,6 C198.183548,6 197,7.18463813 197,8.64200293 L197,49.4481726 C197,50.1129356 197.544944,50.6498589 198.209093,50.6498589 L222.603767,50.6498589 C222.867726,50.6498589 223.114653,50.7776949 223.267916,50.9907609 C224.213053,52.3117627 225.745701,53.0787966 227.41459,52.9935702 C229.824256,52.8827752 231.808188,50.9566718 231.986995,48.5447786 C232.191349,45.7238017 229.96049,43.3630423 227.184692,43.3630423 Z" id="path20" fill="#30BBF8"></path>
                </g>
            </g>
        </g>
    </g>
</svg>