<?xml version="1.0" encoding="utf-8"?>
<!-- Generator: Avocode 0.4.0 - http://avocode.com -->
<svg height="100" width="273" xmlns:xlink="http://www.w3.org/1999/xlink" xmlns="http://www.w3.org/2000/svg" viewBox="0 0 273 100">
    <path fill="none" fill-rule="evenodd" d="M 74.19 99.09 L 136.05 99.09 L 136.05 89.63 L 74.19 89.63 L 74.19 99.09 L 74.19 99.09 Z M 74.19 99.09" />
    <path fill="#37326a" fill-rule="evenodd" d="M 74.19 94.37 C 74.19 91.55 76.24 89.63 78.85 89.63 C 80.45 89.63 81.56 90.4 82.28 91.44 L 81.34 91.98 C 80.83 91.2 79.88 90.65 78.85 90.65 C 76.87 90.65 75.36 92.17 75.36 94.37 C 75.36 96.53 76.87 98.08 78.85 98.08 C 79.88 98.08 80.83 97.52 81.34 96.75 L 82.29 97.27 C 81.53 98.33 80.45 99.1 78.85 99.1 C 76.24 99.1 74.19 97.18 74.19 94.37" />
    <path fill="#37326a" fill-rule="evenodd" d="M 95.13 94.37 C 95.13 92.23 93.82 90.65 91.79 90.65 C 89.76 90.65 88.47 92.23 88.47 94.37 C 88.47 96.49 89.76 98.08 91.79 98.08 C 93.82 98.08 95.13 96.49 95.13 94.37 L 95.13 94.37 Z M 87.3 94.37 C 87.3 91.66 89.12 89.63 91.79 89.63 C 94.47 89.63 96.3 91.66 96.3 94.37 C 96.3 97.07 94.47 99.1 91.79 99.1 C 89.12 99.1 87.3 97.07 87.3 94.37 L 87.3 94.37 Z M 87.3 94.37" />
    <path fill="#37326a" fill-rule="evenodd" d="M 108.39 98.93 L 103.11 91.64 L 103.11 98.93 L 101.99 98.93 L 101.99 89.78 L 103.14 89.78 L 108.35 96.93 L 108.35 89.78 L 109.48 89.78 L 109.48 98.93 L 108.39 98.93" />
    <path fill="#37326a" fill-rule="evenodd" d="M 114.99 97.64 L 115.67 96.77 C 116.25 97.45 117.23 98.08 118.5 98.08 C 120.12 98.08 120.63 97.21 120.63 96.49 C 120.63 94.13 115.27 95.45 115.27 92.18 C 115.27 90.68 116.6 89.63 118.39 89.63 C 119.77 89.63 120.84 90.11 121.6 90.92 L 120.92 91.76 C 120.24 90.99 119.29 90.66 118.3 90.66 C 117.23 90.66 116.44 91.25 116.44 92.12 C 116.44 94.17 121.8 92.99 121.8 96.41 C 121.8 97.73 120.91 99.1 118.46 99.1 C 116.9 99.1 115.73 98.5 114.99 97.64" />
    <path fill="#37326a" fill-rule="evenodd" d="M 134.88 94.37 C 134.88 92.23 133.57 90.65 131.55 90.65 C 129.51 90.65 128.22 92.23 128.22 94.37 C 128.22 96.49 129.51 98.08 131.55 98.08 C 133.57 98.08 134.88 96.49 134.88 94.37 L 134.88 94.37 Z M 127.05 94.37 C 127.05 91.66 128.87 89.63 131.55 89.63 C 134.22 89.63 136.05 91.66 136.05 94.37 C 136.05 97.07 134.22 99.1 131.55 99.1 C 128.87 99.1 127.05 97.07 127.05 94.37 L 127.05 94.37 Z M 127.05 94.37" />
    <path fill="#37326a" fill-rule="evenodd" d="M 146.87 92.56 C 146.87 91.54 146.13 90.85 145.08 90.85 L 142.75 90.85 L 142.75 94.28 L 145.08 94.28 C 146.13 94.28 146.87 93.57 146.87 92.56 L 146.87 92.56 Z M 146.78 98.82 L 144.54 95.26 L 142.75 95.26 L 142.75 98.82 L 141.65 98.82 L 141.65 89.86 L 145.21 89.86 C 146.84 89.86 148.01 90.91 148.01 92.56 C 148.01 94.17 146.9 95.06 145.69 95.17 L 148.09 98.82 L 146.78 98.82 L 146.78 98.82 Z M 146.78 98.82" />
    <path fill="#37326a" fill-rule="evenodd" d="M 156.05 98.82 L 156.05 90.85 L 153.13 90.85 L 153.13 89.86 L 160.13 89.86 L 160.13 90.85 L 157.19 90.85 L 157.19 98.82 L 156.05 98.82" />
    <path fill="#37326a" fill-rule="evenodd" d="M 165.34 98.94 L 166.46 98.94 L 166.46 89.88 L 165.34 89.88 L 165.34 98.94 Z M 165.34 98.94" />
    <path fill="#37326a" fill-rule="evenodd" d="M 172.51 95.42 L 172.51 89.88 L 173.65 89.88 L 173.65 95.39 C 173.65 97.05 174.54 98.09 176.2 98.09 C 177.87 98.09 178.77 97.05 178.77 95.39 L 178.77 89.88 L 179.91 89.88 L 179.91 95.41 C 179.91 97.66 178.66 99.1 176.2 99.1 C 173.76 99.1 172.51 97.65 172.51 95.42" />
    <path fill="#37326a" fill-rule="evenodd" d="M 193.69 98.94 L 193.69 91.32 L 190.63 98.94 L 190.17 98.94 L 187.09 91.32 L 187.09 98.94 L 185.96 98.94 L 185.96 89.88 L 187.57 89.88 L 190.4 96.86 L 193.2 89.88 L 194.82 89.88 L 194.82 98.94 L 193.69 98.94" />
    <path fill="#ed185b" fill-rule="evenodd" d="M 40.29 18.31 C 39.18 18.31 38.27 19.22 38.27 20.33 C 38.27 21.44 39.18 22.35 40.29 22.35 C 41.4 22.35 42.31 21.44 42.31 20.33 C 42.31 19.22 41.4 18.31 40.29 18.31 L 40.29 18.31 Z M 24.99 60.9 C 18.14 60.9 11.84 58.38 7.26 53.82 C 2.58 49.15 0 42.61 0 35.4 C 0 28.18 2.58 21.64 7.26 16.98 C 11.84 12.41 18.14 9.89 24.99 9.89 C 30.26 9.89 34.93 11.45 38.88 14.52 C 39.09 14.69 39.35 14.76 39.61 14.72 C 39.84 14.7 40.06 14.68 40.29 14.68 C 43.54 14.68 46.16 17.45 45.92 20.76 C 45.71 23.52 43.48 25.75 40.72 25.96 C 37.42 26.21 34.65 23.59 34.65 20.33 C 34.65 20.06 34.67 19.78 34.71 19.51 C 34.76 19.15 34.61 18.78 34.31 18.57 C 31.58 16.69 28.32 15.66 24.99 15.66 C 19.85 15.66 15.15 17.59 11.74 21.11 C 8.25 24.7 6.33 29.78 6.33 35.4 C 6.33 40.96 8.25 46.02 11.74 49.64 C 15.16 53.18 19.87 55.13 24.99 55.13 C 30.11 55.13 35.08 52.66 37.96 48.68 L 38.78 47.72 C 39.39 47.19 40.16 46.89 40.95 46.89 C 41.58 46.89 42.18 47.08 42.68 47.45 C 43.35 47.94 43.77 48.69 43.85 49.56 C 43.92 50.2 43.79 50.85 43.49 51.44 L 43.07 52.08 C 38.2 58.01 32.28 60.9 24.99 60.9 L 24.99 60.9 Z M 24.99 60.9" />
    <path fill="#ed185b" fill-rule="evenodd" d="M 47.09 63.86 C 45.97 63.86 45.07 64.77 45.07 65.88 C 45.07 66.99 45.97 67.9 47.09 67.9 C 48.2 67.9 49.11 66.99 49.11 65.88 C 49.11 64.77 48.2 63.86 47.09 63.86 L 47.09 63.86 Z M 62.75 75.58 C 57.54 75.58 52.77 74.2 48.91 71.57 C 48.69 71.42 48.42 71.37 48.15 71.42 C 47.8 71.49 47.45 71.52 47.09 71.52 C 43.82 71.52 41.2 68.75 41.45 65.45 C 41.66 62.69 43.89 60.46 46.65 60.26 C 49.97 60.01 52.74 62.63 52.74 65.88 C 52.74 65.97 52.74 66.06 52.74 66.15 C 52.72 66.5 52.89 66.83 53.18 67.02 C 56.13 68.88 59.39 69.82 62.89 69.82 C 66.81 69.82 69.82 68.91 71.81 67.11 C 73.4 65.67 74.28 63.66 74.28 61.44 C 74.28 55.59 68.47 53.97 61.76 52.1 C 58 51.06 54.12 49.98 51.13 48.01 C 47.59 45.7 45.87 42.51 45.87 38.28 C 45.87 34.25 47.59 30.78 50.83 28.26 C 53.84 25.92 57.97 24.63 62.47 24.63 C 69.09 24.63 74.68 26.8 78.62 30.91 C 78.85 31.15 79.08 31.4 79.3 31.65 L 79.76 32.17 C 80.96 33.56 80.9 35.57 79.63 36.67 C 79.12 37.11 78.44 37.36 77.74 37.36 C 76.77 37.36 75.83 36.92 75.16 36.15 C 75.13 36.11 75.1 36.07 75.07 36.04 L 75.07 36.03 L 75.02 35.98 L 75 35.95 C 71.97 32.32 67.57 30.4 62.25 30.4 C 56.44 30.4 52.22 33.62 52.22 38.07 C 52.22 42.77 57.27 44.19 63.67 45.98 C 67.63 47.09 71.73 48.24 74.97 50.42 C 78.77 52.98 80.62 56.49 80.62 61.16 C 80.62 64.91 79.22 68.36 76.69 70.87 C 73.54 74 68.85 75.58 62.75 75.58 L 62.75 75.58 Z M 62.75 75.58" />
    <path fill="#3061ac" fill-rule="evenodd" d="M 114.32 44.88 C 114.23 45.92 113.35 46.73 112.31 46.73 C 112.25 46.73 112.2 46.73 112.14 46.72 C 111.6 46.68 111.11 46.43 110.77 46.01 C 110.42 45.6 110.25 45.08 110.29 44.54 C 110.34 44 110.59 43.51 111 43.17 C 111.37 42.85 111.82 42.69 112.3 42.69 C 112.36 42.69 112.42 42.69 112.47 42.69 C 113.01 42.74 113.5 42.99 113.85 43.4 C 114.19 43.82 114.36 44.34 114.32 44.88 L 114.32 44.88 Z M 139.17 28.53 C 135.95 24.88 131.5 22.96 126.33 22.96 C 121.21 22.96 116.82 24.88 113.61 28.54 C 111.04 31.46 109.42 35.41 109.01 39.72 C 108.99 39.98 108.86 40.22 108.66 40.39 C 108.66 40.39 108.66 40.39 108.66 40.39 C 107.51 41.37 106.8 42.73 106.68 44.24 C 106.42 47.34 108.73 50.08 111.84 50.34 C 111.99 50.36 112.15 50.36 112.31 50.36 C 115.22 50.36 117.69 48.09 117.93 45.18 C 118.1 43.14 117.17 41.21 115.54 40.07 C 115.23 39.86 115.06 39.49 115.12 39.12 C 116.04 33.6 119.74 28.37 126.33 28.37 C 129.79 28.37 132.73 29.78 134.82 32.44 C 136.77 34.92 137.84 38.3 137.84 41.96 C 137.84 45.65 136.77 49.05 134.82 51.54 C 132.73 54.2 129.79 55.61 126.33 55.61 C 123.58 55.61 121.12 54.68 119.19 52.91 C 118.68 52.43 118 52.14 117.25 52.14 C 115.68 52.14 114.4 53.42 114.4 55 C 114.4 55.86 114.77 56.63 115.37 57.15 C 115.38 57.16 115.39 57.17 115.4 57.17 C 115.41 57.18 115.42 57.2 115.44 57.21 C 115.44 57.21 115.44 57.21 115.44 57.21 C 118.41 59.71 122.14 61.03 126.33 61.03 C 131.5 61.03 135.94 59.09 139.17 55.41 C 142.21 51.95 143.89 47.17 143.89 41.96 C 143.89 36.74 142.21 31.98 139.17 28.53 L 139.17 28.53 Z M 139.17 28.53" />
    <path fill="#3061ac" fill-rule="evenodd" d="M 94.56 58.39 C 93.45 58.39 92.54 59.3 92.54 60.41 C 92.54 61.53 93.45 62.43 94.56 62.43 C 95.68 62.43 96.58 61.53 96.58 60.41 C 96.58 59.3 95.68 58.39 94.56 58.39 L 94.56 58.39 Z M 94.5 66.07 C 91.69 66.03 89.3 63.91 88.95 61.13 C 88.7 59.07 89.56 57.1 91.15 55.9 C 91.39 55.72 91.53 55.44 91.53 55.14 L 91.53 29.58 C 91.53 29.37 91.36 29.2 91.15 29.2 L 86.94 29.2 C 86.93 29.2 86.89 29.2 86.89 29.2 C 86.85 29.2 86.81 29.2 86.79 29.19 C 85.37 29.12 84.26 27.95 84.26 26.53 C 84.26 25.11 85.36 23.95 86.76 23.86 C 86.81 23.85 86.85 23.85 86.89 23.85 L 91.15 23.85 C 91.36 23.85 91.53 23.68 91.53 23.47 L 91.53 21.77 C 91.53 18.25 92.48 15.3 94.28 13.25 C 96.11 11.18 98.73 10.08 101.87 10.08 C 104.02 10.08 106.39 10.4 109.08 12.75 C 109.1 12.76 109.12 12.78 109.14 12.8 C 109.29 12.92 109.43 13.06 109.56 13.2 C 110.59 14.4 110.54 16.14 109.44 17.09 C 108.99 17.48 108.4 17.7 107.79 17.7 L 107.79 17.7 C 107.18 17.7 106.57 17.49 106.06 17.11 C 106.01 17.07 105.96 17.03 105.91 16.99 C 104.84 15.99 103.63 15.5 102.22 15.5 C 99 15.5 97.37 17.61 97.37 21.77 L 97.37 23.47 C 97.37 23.68 97.54 23.85 97.75 23.85 L 103.29 23.85 C 103.35 23.85 103.41 23.86 103.47 23.87 C 104.83 24.01 105.86 25.15 105.86 26.53 C 105.86 27.91 104.83 29.05 103.46 29.19 C 103.4 29.19 103.34 29.2 103.29 29.2 L 103.18 29.2 C 103.17 29.2 103.16 29.2 103.15 29.2 L 97.75 29.2 C 97.54 29.2 97.37 29.37 97.37 29.58 L 97.37 54.98 C 97.37 55.29 97.52 55.59 97.78 55.77 C 99.28 56.81 100.22 58.55 100.22 60.41 C 100.22 63.55 97.64 66.1 94.5 66.07 L 94.5 66.07 Z M 94.5 66.07" />
    <path fill="#3061ac" fill-rule="evenodd" d="M 153.42 23.06 C 152.32 23.06 151.42 22.15 151.42 21.04 C 151.42 19.93 152.32 19.02 153.42 19.02 C 154.53 19.02 155.43 19.93 155.43 21.04 C 155.43 22.15 154.53 23.06 153.42 23.06 L 153.42 23.06 Z M 167.47 22.96 C 167.36 22.96 167.25 22.96 167.15 22.98 C 163.5 23.13 159.69 24.8 156.72 27.47 C 156.55 27.62 156.28 27.5 156.28 27.27 L 156.28 26.42 C 156.28 26.11 156.43 25.81 156.68 25.64 C 158.14 24.59 159.04 22.87 159.04 21.04 C 159.04 17.79 156.29 15.17 153 15.41 C 150.19 15.62 147.95 17.94 147.82 20.77 C 147.73 22.72 148.62 24.52 150.15 25.63 C 150.4 25.81 150.55 26.1 150.55 26.41 L 150.55 58.87 C 150.55 58.91 150.54 58.95 150.54 58.98 C 150.54 60.57 151.83 61.87 153.41 61.87 C 155 61.87 156.29 60.57 156.29 58.98 C 156.29 58.97 156.28 58.95 156.28 58.94 L 156.28 37.26 C 156.28 36.7 156.38 36.15 156.6 35.64 C 157.79 32.83 161.27 28.94 165.88 28.94 C 166.3 28.94 166.63 28.94 166.94 28.97 C 167.11 29 167.29 29.02 167.47 29.02 C 169.14 29.02 170.48 27.66 170.48 25.99 C 170.48 24.31 169.14 22.96 167.47 22.96 L 167.47 22.96 Z M 167.47 22.96" />
    <path fill="#30bbf8" fill-rule="evenodd" d="M 198.15 42.69 L 180.55 42.69 C 180.14 42.69 179.87 42.28 180.02 41.91 L 188.85 20.12 C 189.04 19.65 189.71 19.65 189.9 20.12 L 198.68 41.91 C 198.83 42.28 198.55 42.69 198.15 42.69 L 198.15 42.69 Z M 164.66 73.35 C 163.55 73.35 162.64 72.44 162.64 71.33 C 162.64 70.21 163.55 69.31 164.66 69.31 C 165.78 69.31 166.68 70.21 166.68 71.33 C 166.68 72.44 165.78 73.35 164.66 73.35 L 164.66 73.35 Z M 192.99 11.7 L 192.97 11.67 C 192.37 10.19 190.95 9.24 189.35 9.24 C 187.73 9.24 186.31 10.2 185.71 11.69 L 185.69 11.72 L 163.86 65.29 C 163.74 65.57 163.51 65.79 163.22 65.86 C 160.7 66.52 158.91 68.83 159.01 71.54 C 159.11 74.37 161.34 76.72 164.17 76.96 C 167.51 77.25 170.32 74.61 170.32 71.33 C 170.32 70.44 170.11 69.57 169.72 68.79 C 169.59 68.53 169.57 68.24 169.67 67.97 L 177.37 48.82 C 177.46 48.6 177.67 48.46 177.9 48.46 L 200.8 48.46 C 201.03 48.46 201.24 48.6 201.32 48.81 C 202.09 50.71 205.74 59.7 205.74 59.7 L 205.88 60 L 205.89 60 C 206.39 61.09 207.48 61.84 208.76 61.84 C 210.5 61.84 211.92 60.42 211.92 58.68 C 211.92 58.23 211.82 57.81 211.65 57.42 L 192.99 11.7 L 192.99 11.7 Z M 192.99 11.7" />
    <path fill="#30bbf8" fill-rule="evenodd" d="M 219.62 7.73 C 218.5 7.73 217.59 6.82 217.59 5.71 C 217.59 4.6 218.5 3.69 219.62 3.69 C 220.73 3.69 221.64 4.6 221.64 5.71 C 221.64 6.82 220.73 7.73 219.62 7.73 L 219.62 7.73 Z M 244.74 66.71 C 244.69 66.71 244.64 66.71 244.59 66.71 L 223.79 66.71 C 223.18 66.71 222.7 66.23 222.7 65.63 L 222.7 10.95 C 222.7 10.65 222.83 10.37 223.07 10.19 C 224.44 9.12 225.27 7.48 225.27 5.71 C 225.27 2.59 222.73 0.06 219.62 0.06 C 216.5 0.06 213.96 2.59 213.96 5.71 C 213.96 7.46 214.78 9.1 216.13 10.16 C 216.36 10.34 216.5 10.62 216.5 10.92 L 216.5 70.97 C 216.5 71.81 217.18 72.49 218.02 72.49 L 244.59 72.49 C 244.61 72.49 244.63 72.49 244.66 72.48 C 244.68 72.49 244.71 72.49 244.74 72.49 C 246.33 72.49 247.63 71.19 247.63 69.6 C 247.63 68 246.33 66.71 244.74 66.71 L 244.74 66.71 Z M 244.74 66.71" />
    <path fill="#30bbf8" fill-rule="evenodd" d="M 266.96 59.36 C 265.84 59.36 264.94 58.45 264.94 57.34 C 264.94 56.22 265.84 55.32 266.96 55.32 C 268.07 55.32 268.98 56.22 268.98 57.34 C 268.98 58.45 268.07 59.36 266.96 59.36 L 266.96 59.36 Z M 266.96 51.68 C 265.13 51.68 263.41 52.59 262.35 54.06 C 262.17 54.31 261.88 54.46 261.57 54.46 L 238.8 54.46 C 238.2 54.46 237.71 53.97 237.71 53.37 L 237.71 11.53 C 237.71 11.53 237.72 11.51 237.72 11.49 C 237.72 11.47 237.71 11.45 237.71 11.42 L 237.71 10.99 L 237.71 10.99 C 237.71 10.97 237.71 10.96 237.71 10.94 C 237.71 9.23 236.33 7.84 234.61 7.84 C 232.9 7.84 231.51 9.23 231.51 10.94 L 231.51 58.82 C 231.51 59.6 232.15 60.23 232.93 60.23 L 261.58 60.23 C 261.89 60.23 262.18 60.38 262.36 60.63 C 263.47 62.18 265.27 63.08 267.23 62.98 C 270.06 62.85 272.39 60.59 272.6 57.76 C 272.84 54.45 270.22 51.68 266.96 51.68 L 266.96 51.68 Z M 266.96 51.68" />
</svg>